# xmcd
#
# Track frame offsets:
#	150
#	18830
#	34571
#	47462
#	64236
#	78134
#	97805
#	110439
#	122710
#	137889
#	153082
#	165110
#	181662
#	192182
#	208550
#	229777
#
# Disc length: 3312 seconds
#
# Revision: 0
# Processed by: cddbd v1.5.2PL0 Copyright (c) Steve Scherf et al.
# Submitted via: EZCDAudioConverter 4.0.5.1
#
DISCID=b40cee10
DTITLE=Daniel - Meu Reino Encantado 3
DYEAR=2005
DGENRE=Sertanejo
TTITLE0=Daniel Feat. Rionegro and Solimões - Desatino
TTITLE1=Daniel Feat. José Camilo - Jeitao de cabloco
TTITLE2=Daniel Feat. Zé Henrique and Gabriel - Proposta
TTITLE3=Daniel Feat. Caim and Abel - Pescador e Catireiro
TTITLE4=Daniel Feat. Perla - Mercedita
TTITLE5=Daniel Feat. Bruno and Marrone - Sertanejo de Coracao
TTITLE6=Daniel Feat. José Camilo - Mala Amarela
TTITLE7=Daniel Feat. Amarai and Filho - Gente de Minha Terra
TTITLE8=Daniel Feat. Lourenço and Lourival - A Volta do Boiadeiro
TTITLE9=Daniel Feat. Du Glacial - Poeira
TTITLE10=Daniel Feat. Os Filhos de Goiás - Na Barba do Leao
TTITLE11=Daniel Feat. André and Andrade - O Ultimo dos Carreiros
TTITLE12=Daniel Feat. Raul Gil - Bica dá gua
TTITLE13=Daniel Feat. Ataíde and Alexandre - A vida de Pescador
TTITLE14=Daniel Feat. Moacyr Franco - Dia de Visita
TTITLE15=Daniel - Desatino
EXTD=
EXTT0=
EXTT1=
EXTT2=
EXTT3=
EXTT4=
EXTT5=
EXTT6=
EXTT7=
EXTT8=
EXTT9=
EXTT10=
EXTT11=
EXTT12=
EXTT13=
EXTT14=
EXTT15=
PLAYORDER=
